# xmcd
#
# Track frame offsets: 
#        150
#        10862
#        23082
#        33112
#        43350
#        55840
#        66087
#        78575
#        91960
#        105282
#        114725
#        124665
#        134840
#        144375
#
# Disc length: 2108 seconds
#
# Revision: 0
# Processed by: cddbd v1.5.2PL0 Copyright (c) Steve Scherf et al.
# Submitted via: ExactAudioCopyFreeDBPlugin 1.0
#
DISCID=ba083a0e
DTITLE=Various Artist - Country Classics
DYEAR=1990
DGENRE=Country
TTITLE0=Roger Miller - King of the road
TTITLE1=Lynn Anderson - Stand by your man
TTITLE2=Jimmie Rodgers - Honeycomb
TTITLE3=Dave Dudley - Six days on the road
TTITLE4=Lynn Anderson - I fall to pieces
TTITLE5=Gene Autry - San Antonio rose
TTITLE6=Marty Robbins - Tumbling tumbleweeds
TTITLE7=Roy Orbison - Pretty woman
TTITLE8=Gene Pitney - The man who shot Liberty Valance
TTITLE9=Willie Nelson - Building Heartaches
TTITLE10=Hank Lochlin - Please help me I'm falling
TTITLE11=Jimmie Rodgers - Kisses sweeter than wine
TTITLE12=Duane Eddy - 40 miles of bad road
TTITLE13=Dave Dudley - Phantom 309
EXTD=
EXTT0=
EXTT1=
EXTT2=
EXTT3=
EXTT4=
EXTT5=
EXTT6=
EXTT7=
EXTT8=
EXTT9=
EXTT10=
EXTT11=
EXTT12=
EXTT13=
PLAYORDER=
